<mxfile host="app.diagrams.net" modified="2021-08-03T13:46:00.314Z" agent="5.0 (Macintosh; Intel Mac OS X 10_14_4) AppleWebKit/537.36 (KHTML, like Gecko) Chrome/91.0.4472.114 Safari/537.36" etag="HTQTiITy24kmj8VksfIo" version="14.9.3" type="github">
  <diagram id="nSvNm-MXKPnd6NRilGM2" name="Page-1">
    <mxGraphModel dx="845" dy="509" grid="0" gridSize="10" guides="1" tooltips="1" connect="1" arrows="1" fold="1" page="1" pageScale="1" pageWidth="827" pageHeight="1169" math="0" shadow="0">
      <root>
        <mxCell id="0" />
        <mxCell id="1" parent="0" />
        <mxCell id="Gs1G3N7H25UIlm9828O6-9" value="" style="rounded=0;whiteSpace=wrap;html=1;shadow=0;glass=0;labelBackgroundColor=none;sketch=0;fillColor=#ffffff;" vertex="1" parent="1">
          <mxGeometry x="145" y="127" width="120" height="60" as="geometry" />
        </mxCell>
        <mxCell id="Gs1G3N7H25UIlm9828O6-10" value="" style="rounded=0;whiteSpace=wrap;html=1;shadow=0;glass=0;labelBackgroundColor=none;sketch=0;fillColor=#ffffff;" vertex="1" parent="1">
          <mxGeometry x="150" y="133" width="120" height="60" as="geometry" />
        </mxCell>
        <mxCell id="Gs1G3N7H25UIlm9828O6-14" value="" style="rounded=0;orthogonalLoop=1;jettySize=auto;html=1;strokeWidth=1;shadow=0;startArrow=none;startFill=0;endArrow=none;endFill=0;exitX=1;exitY=0.5;exitDx=0;exitDy=0;entryX=0;entryY=0.5;entryDx=0;entryDy=0;dashed=1;" edge="1" parent="1" source="Gs1G3N7H25UIlm9828O6-11" target="Gs1G3N7H25UIlm9828O6-12">
          <mxGeometry relative="1" as="geometry" />
        </mxCell>
        <mxCell id="Gs1G3N7H25UIlm9828O6-11" value="x&lt;sub&gt;1&lt;/sub&gt;:This is just an example" style="rounded=0;whiteSpace=wrap;html=1;shadow=0;glass=0;labelBackgroundColor=none;sketch=0;fillColor=#ffffff;" vertex="1" parent="1">
          <mxGeometry x="155" y="139" width="120" height="60" as="geometry" />
        </mxCell>
        <mxCell id="Gs1G3N7H25UIlm9828O6-12" value="y&lt;sub&gt;1&lt;/sub&gt;" style="whiteSpace=wrap;html=1;rounded=0;shadow=0;glass=0;sketch=0;" vertex="1" parent="1">
          <mxGeometry x="540" y="119" width="120" height="48" as="geometry" />
        </mxCell>
        <mxCell id="Gs1G3N7H25UIlm9828O6-15" value="y&lt;sub&gt;2&lt;/sub&gt;" style="whiteSpace=wrap;html=1;rounded=0;shadow=0;glass=0;sketch=0;" vertex="1" parent="1">
          <mxGeometry x="540" y="187" width="120" height="50" as="geometry" />
        </mxCell>
        <mxCell id="Gs1G3N7H25UIlm9828O6-16" value="y&lt;sub&gt;n&lt;/sub&gt;" style="whiteSpace=wrap;html=1;rounded=0;shadow=0;glass=0;sketch=0;" vertex="1" parent="1">
          <mxGeometry x="540" y="312" width="120" height="50" as="geometry" />
        </mxCell>
        <mxCell id="Gs1G3N7H25UIlm9828O6-17" value="" style="rounded=0;orthogonalLoop=1;jettySize=auto;html=1;strokeWidth=1;shadow=0;startArrow=none;startFill=0;endArrow=none;endFill=0;exitX=1;exitY=0.5;exitDx=0;exitDy=0;entryX=0;entryY=0.5;entryDx=0;entryDy=0;dashed=1;" edge="1" parent="1" source="Gs1G3N7H25UIlm9828O6-11" target="Gs1G3N7H25UIlm9828O6-15">
          <mxGeometry relative="1" as="geometry">
            <mxPoint x="290" y="127.40540540540542" as="sourcePoint" />
            <mxPoint x="540" y="66.59459459459458" as="targetPoint" />
          </mxGeometry>
        </mxCell>
        <mxCell id="Gs1G3N7H25UIlm9828O6-18" value="" style="rounded=0;orthogonalLoop=1;jettySize=auto;html=1;strokeWidth=1;shadow=0;startArrow=none;startFill=0;endArrow=none;endFill=0;exitX=1;exitY=0.5;exitDx=0;exitDy=0;entryX=0;entryY=0.5;entryDx=0;entryDy=0;dashed=1;" edge="1" parent="1" source="Gs1G3N7H25UIlm9828O6-11" target="Gs1G3N7H25UIlm9828O6-16">
          <mxGeometry relative="1" as="geometry">
            <mxPoint x="300" y="137.40540540540542" as="sourcePoint" />
            <mxPoint x="550" y="76.59459459459458" as="targetPoint" />
          </mxGeometry>
        </mxCell>
        <mxCell id="Gs1G3N7H25UIlm9828O6-19" value="..." style="text;html=1;align=center;verticalAlign=middle;resizable=0;points=[];autosize=1;strokeColor=none;" vertex="1" parent="1">
          <mxGeometry x="585" y="260" width="30" height="20" as="geometry" />
        </mxCell>
        <mxCell id="Gs1G3N7H25UIlm9828O6-20" value="Clean texts:X={x&lt;sub&gt;1&lt;/sub&gt;,x&lt;sub&gt;2&lt;/sub&gt;,...,x&lt;sub&gt;n&lt;/sub&gt;}" style="text;html=1;align=center;verticalAlign=middle;resizable=0;points=[];autosize=1;strokeColor=none;" vertex="1" parent="1">
          <mxGeometry x="130" y="99" width="160" height="20" as="geometry" />
        </mxCell>
        <mxCell id="Gs1G3N7H25UIlm9828O6-21" value="Function F" style="text;html=1;align=center;verticalAlign=middle;resizable=0;points=[];autosize=1;strokeColor=none;" vertex="1" parent="1">
          <mxGeometry x="379" y="107" width="70" height="20" as="geometry" />
        </mxCell>
        <mxCell id="Gs1G3N7H25UIlm9828O6-22" value="Classes:Y={y&lt;sub&gt;1&lt;/sub&gt;,y&lt;sub&gt;2&lt;/sub&gt;,...y&lt;sub&gt;n&lt;/sub&gt;}" style="text;html=1;align=center;verticalAlign=middle;resizable=0;points=[];autosize=1;strokeColor=none;" vertex="1" parent="1">
          <mxGeometry x="530" y="95" width="140" height="20" as="geometry" />
        </mxCell>
        <mxCell id="Gs1G3N7H25UIlm9828O6-23" value="" style="rounded=0;whiteSpace=wrap;html=1;shadow=0;glass=0;labelBackgroundColor=none;sketch=0;fillColor=#ffffff;" vertex="1" parent="1">
          <mxGeometry x="150" y="290" width="120" height="60" as="geometry" />
        </mxCell>
        <mxCell id="Gs1G3N7H25UIlm9828O6-24" value="" style="rounded=0;whiteSpace=wrap;html=1;shadow=0;glass=0;labelBackgroundColor=none;sketch=0;fillColor=#ffffff;" vertex="1" parent="1">
          <mxGeometry x="155" y="296" width="120" height="60" as="geometry" />
        </mxCell>
        <mxCell id="Gs1G3N7H25UIlm9828O6-25" value="x&#39;&lt;sub&gt;1&lt;/sub&gt;:This is just a eamxple" style="rounded=0;whiteSpace=wrap;html=1;shadow=0;glass=0;labelBackgroundColor=none;sketch=0;fillColor=#ffffff;" vertex="1" parent="1">
          <mxGeometry x="160" y="302" width="120" height="60" as="geometry" />
        </mxCell>
        <mxCell id="Gs1G3N7H25UIlm9828O6-26" value="OCR transcripts:X&#39;={x&#39;&lt;sub&gt;1&lt;/sub&gt;,x&#39;&lt;sub&gt;2&lt;/sub&gt;,...,x&#39;&lt;sub&gt;n&lt;/sub&gt;}" style="text;html=1;align=center;verticalAlign=middle;resizable=0;points=[];autosize=1;strokeColor=none;" vertex="1" parent="1">
          <mxGeometry x="121" y="260" width="189" height="21" as="geometry" />
        </mxCell>
        <mxCell id="Gs1G3N7H25UIlm9828O6-27" value="" style="rounded=0;orthogonalLoop=1;jettySize=auto;html=1;strokeWidth=1;shadow=0;startArrow=none;startFill=0;endArrow=none;endFill=0;exitX=1;exitY=0.5;exitDx=0;exitDy=0;entryX=0;entryY=0.5;entryDx=0;entryDy=0;dashed=1;" edge="1" parent="1" source="Gs1G3N7H25UIlm9828O6-25" target="Gs1G3N7H25UIlm9828O6-12">
          <mxGeometry relative="1" as="geometry">
            <mxPoint x="290" y="330.6" as="sourcePoint" />
            <mxPoint x="555" y="309.4" as="targetPoint" />
          </mxGeometry>
        </mxCell>
        <mxCell id="Gs1G3N7H25UIlm9828O6-28" value="" style="rounded=0;orthogonalLoop=1;jettySize=auto;html=1;strokeWidth=1;shadow=0;startArrow=none;startFill=0;endArrow=none;endFill=0;exitX=1;exitY=0.5;exitDx=0;exitDy=0;entryX=0;entryY=0.5;entryDx=0;entryDy=0;dashed=1;" edge="1" parent="1" source="Gs1G3N7H25UIlm9828O6-25" target="Gs1G3N7H25UIlm9828O6-15">
          <mxGeometry relative="1" as="geometry">
            <mxPoint x="295" y="189" as="sourcePoint" />
            <mxPoint x="560" y="167.79999999999995" as="targetPoint" />
          </mxGeometry>
        </mxCell>
        <mxCell id="Gs1G3N7H25UIlm9828O6-29" value="" style="rounded=0;orthogonalLoop=1;jettySize=auto;html=1;strokeWidth=1;shadow=0;startArrow=none;startFill=0;endArrow=none;endFill=0;exitX=1;exitY=0.5;exitDx=0;exitDy=0;entryX=0;entryY=0.5;entryDx=0;entryDy=0;dashed=1;" edge="1" parent="1" source="Gs1G3N7H25UIlm9828O6-25" target="Gs1G3N7H25UIlm9828O6-16">
          <mxGeometry relative="1" as="geometry">
            <mxPoint x="305" y="199" as="sourcePoint" />
            <mxPoint x="570" y="177.79999999999995" as="targetPoint" />
          </mxGeometry>
        </mxCell>
      </root>
    </mxGraphModel>
  </diagram>
</mxfile>
